<?xml version="1.0" standalone="no"?>
<!DOCTYPE svg PUBLIC "-//W3C//DTD SVG 20010904//EN"
 "http://www.w3.org/TR/2001/REC-SVG-20010904/DTD/svg10.dtd">
<svg version="1.0" xmlns="http://www.w3.org/2000/svg"
 width="232.000000pt" height="232.000000pt" viewBox="0 0 232.000000 232.000000"
 preserveAspectRatio="xMidYMid meet">
<metadata>
Created by potrace 1.11, written by Peter Selinger 2001-2013
</metadata>
<g transform="translate(0.000000,232.000000) scale(0.100000,-0.100000)"
fill="#000000" stroke="none">
<path d="M1018 1713 c6 -2 18 -2 25 0 6 3 1 5 -13 5 -14 0 -19 -2 -12 -5z"/>
<path d="M922 1698 c-7 -7 -12 -34 -12 -61 0 -41 -5 -54 -35 -85 -77 -81 -115
-196 -115 -348 0 -147 47 -314 119 -418 33 -48 111 -106 140 -106 9 0 -3 9
-26 19 -110 50 -201 245 -219 466 l-7 89 31 -26 c40 -33 82 -43 126 -28 47 15
66 48 66 115 0 50 -4 60 -30 87 -26 26 -36 29 -73 26 -23 -3 -50 -8 -59 -12
-28 -13 -21 13 20 73 38 57 62 74 62 47 0 -17 23 -21 95 -16 74 4 85 13 85 70
0 49 1 50 30 50 67 0 151 -130 191 -296 30 -125 38 -363 14 -453 -35 -136 -66
-167 -194 -198 -69 -16 -72 -18 -38 -21 35 -3 37 -5 37 -40 0 -20 3 -81 7
-135 5 -83 4 -97 -9 -97 -19 0 -31 -64 -22 -120 l7 -40 114 0 114 0 -6 73 c-4
39 -13 77 -20 82 -9 7 -15 60 -20 172 l-7 161 36 32 c53 47 96 141 102 226 10
114 -12 379 -36 454 -48 147 -135 220 -262 220 -35 0 -38 3 -39 28 0 24 -1 25
-9 7 -5 -11 -9 -14 -9 -6 -1 10 -15 12 -68 8 -43 -4 -59 -3 -43 2 l25 9 -25 1
c-15 1 -31 -4 -38 -11z m57 -68 c-12 -16 -22 -43 -22 -60 0 -22 -5 -30 -19
-30 -15 0 -18 8 -18 54 0 57 4 62 58 65 l23 1 -22 -30z m93 -16 c2 -25 1 -49
-2 -53 -3 -5 -25 -10 -50 -13 -25 -3 -38 -3 -29 -1 9 2 20 18 23 36 7 35 32
77 45 77 5 0 11 -21 13 -46z m-172 -289 c0 -8 -4 -15 -10 -15 -5 0 -10 7 -10
15 0 8 5 15 10 15 6 0 10 -7 10 -15z m268 -976 c10 0 12 -3 5 -5 -18 -8 -53
15 -53 34 0 13 3 12 16 -6 8 -12 23 -22 32 -23z"/>
<path d="M1134 1429 c-49 -14 -77 -51 -82 -112 -4 -46 -1 -57 19 -80 14 -15
44 -32 69 -38 92 -24 161 40 146 134 -9 56 -23 77 -61 93 -38 16 -47 16 -91 3z
m56 -105 c0 -8 -4 -12 -10 -9 -5 3 -10 10 -10 16 0 5 5 9 10 9 6 0 10 -7 10
-16z"/>
<path d="M1014 1066 c-8 -20 -1 -182 8 -191 3 -4 16 -4 27 0 19 6 21 14 21
101 0 52 -4 94 -9 94 -5 0 -16 3 -25 6 -9 4 -18 0 -22 -10z"/>
</g>
</svg>
